# AST/ASF file generated using VICON BodyLanguage
# -----------------------------------------------
:version 1.10
:name VICON
:units
  mass 1.0
  length 0.45
  angle deg
:documentation
   .ast/.asf automatically generated from VICON data using
   VICON BodyBuilder and BodyLanguage model FoxedUp or BRILLIANT.MOD
:root
   order TX TY TZ RX RY RZ
   axis XYZ
   position 0 0 0  
   orientation 0 0 0 
:bonedata
  begin
     id 1 
     name lhipjoint
     direction 0.643824 -0.71708 0.266994 
     length 2.52133 
     axis 0 0 0  XYZ
  end
  begin
     id 2 
     name lfemur
     direction 0.34202 -0.939693 0  
     length 7.51824  
     axis 0 0 20  XYZ
    dof rx ry rz
    limits (-160.0 20.0)
           (-70.0 70.0)
           (-60.0 70.0)
  end
  begin
     id 3 
     name ltibia
     direction 0.34202 -0.939693 0   
     length 7.3685   
     axis 0 0 20   XYZ
    dof rx
    limits (-10.0 170.0)
  end
  begin
     id 4 
     name lfoot
     direction 0.105419 -0.289636 0.951314   
     length 2.20972   
     axis -90 7.62852e-016 20   XYZ
    dof rx rz
    limits (-45.0 90.0)
           (-70.0 20.0)
  end
  begin
     id 5 
     name ltoes
     direction 1.53549e-011 -4.21833e-011 1   
     length 1.10139   
     axis -90 7.62852e-016 20   XYZ
    dof rx
    limits (-90.0 20.0)
  end
  begin
     id 6 
     name rhipjoint
     direction -0.608823 -0.743445 0.276811   
     length 2.43192  
     axis 0 0 0  XYZ 
  end
  begin
     id 7 
     name rfemur
     direction -0.34202 -0.939693 0   
     length 7.69715   
     axis 0 0 -20   XYZ
    dof rx ry rz
    limits (-160.0 20.0)
           (-70.0 70.0)
           (-70.0 60.0)
  end
  begin
     id 8 
     name rtibia
     direction -0.34202 -0.939693 0   
     length 7.44924   
     axis 0 0 -20   XYZ
    dof rx
    limits (-10.0 170.0)
 end
 begin
     id 9 
     name rfoot
     direction -0.103614 -0.284677 0.953007   
     length 2.22623  
     axis -90 -7.62852e-016 -20   XYZ
    dof rx rz
    limits (-45.0 90.0)
           (-20.0 70.0)
  end
  begin
     id 10 
     name rtoes
     direction -1.53537e-011 -4.22026e-011 1   
     length 1.11   
     axis -90 -7.62852e-016 -20   XYZ
    dof rx
    limits (-90.0 20.0)
  end
  begin
     id 11 
     name lowerback
     direction -0.0101212 0.99662 -0.0815298   
     length 2.08277   
     axis 0 0 0   XYZ
    dof rx ry rz
    limits (-20.0 45.0)
           (-30.0 30.0)
           (-30.0 30.0)
  end
  begin
     id 12 
     name upperback
     direction 0.024314 0.999591 -0.0150645   
     length 2.08524   
     axis 0 0 0   XYZ
    dof rx ry rz
    limits (-20.0 45.0)
           (-30.0 30.0)
           (-30.0 30.0)
  end
  begin
     id 13 
     name thorax
     direction 0.0285959 0.999323 0.0231357   
     length 2.09645   
     axis 0 0 0   XYZ
    dof rx ry rz
    limits (-20.0 45.0)
           (-30.0 30.0)
           (-30.0 30.0)
  end
  begin
     id 14 
     name lowerneck
     direction -0.065512 0.979301 0.191515   
     length 1.63798   
     axis 0 0 0   XYZ
    dof rx ry rz
    limits (-20.0 45.0)
           (-30.0 30.0)
           (-30.0 30.0)
  end
  begin
     id 15 
     name upperneck
     direction 0.0498479 0.98191 -0.182667   
     length 1.68731   
     axis 0 0 0   XYZ
    dof rx ry rz
    limits (-20.0 45.0)
           (-30.0 30.0)
           (-30.0 30.0)
  end
  begin
     id 16
     name head
     direction 0.0230358 0.996257 -0.0833175  
     length 1.69785  
     axis 0 0 0   XYZ
    dof rx ry rz
    limits (-20.0 45.0)
           (-30.0 30.0)
           (-30.0 30.0)
  end
  begin
     id 17 
     name lclavicle
     direction 0.967963 0.201165 -0.150269  
     length 3.63976  
     axis 0 0 0   XYZ
    dof ry rz
    limits (-20.0 10.0)
           (0.0 20.0)
  end
  begin
     id 18 
     name lhumerus
     direction 1 -4.48954e-011 -2.92837e-028   
     length 5.32462   
     axis 180 -30 -90   XYZ
    dof rx ry rz
    limits (-60.0 90.0)
           (-90.0 90.0)
           (-90.0 90.0)
  end
  begin
     id 19
     name lradius
     direction 1 -4.48958e-011 -6.39511e-027   
     length 3.48402   
     axis 180 -30 -90   XYZ
    dof rx
    limits (-10.0 170.0)
  end
  begin
     id 20
     name lwrist
     direction 1 -4.48975e-011 -1.1413e-026   
     length 1.74201   
     axis 6.88575e-015 90 90   XYZ
    dof ry
    limits (-180.0 0.0)
 end
  begin
     id 21 
     name lhand
     direction 1 -4.48899e-011 -2.28192e-026   
     length 0.572476   
     axis 1.45643e-014 90 90   XYZ
    dof rx rz
    limits (-90.0 90.0)
           (-45.0 45.0)
  end
  begin
     id 22 
     name lfingers
     direction 1 -4.49155e-011 -4.5684e-026   
     length 0.461545   
     axis 2.91283e-014 90 90   XYZ
    dof rx
    limits (0.0 90.0)
  end
  begin
     id 23
     name lthumb
     direction 0.707107 -6.34943e-011 0.707107   
     length 0.662688   
     axis -90 45 -2.25915e-014   XYZ
    dof rx rz
    limits (-45.0 45.0)
           (-45.0 45.0)
  end
  begin
     id 24 
     name rclavicle
     direction -0.964103 0.264019 -0.0282629   
     length 3.54491  
     axis 0 0 0   XYZ 
    dof ry rz
    limits (-10.0 20.0)
           (-20.0 0.0)
  end
  begin
     id 25 
     name rhumerus
     direction -1 -4.48964e-011 -2.45032e-027  
     length 5.33589   
     axis 180 30 90   XYZ
    dof rx ry rz
    limits (-90.0 60.0)
           (-90.0 90.0)
           (-90.0 90.0)
  end
  begin
     id 26 
     name rradius
     direction -1 -4.48987e-011 -1.55093e-027   
     length 3.64134   
     axis 180 30 90   XYZ
    dof rx
    limits (-10.0 170.0)
  end
  begin
     id 27 
     name rwrist
     direction -1 -4.4897e-011 -1.14128e-026   
     length 1.82067   
     axis 6.88575e-015 -90 -90   XYZ
    dof ry
    limits (-180.0 0.0)
  end
  begin
     id 28
     name rhand
     direction -1 -4.49021e-011 -2.28301e-026   
     length 0.734811   
     axis 1.45643e-014 -90 -90   XYZ
    dof rx rz
    limits (-90.0 90.0)
           (-45.0 45.0)
  end
  begin
     id 29
     name rfingers
     direction -1 -4.48862e-011 -4.56319e-026   
     length 0.592424   
     axis 2.91283e-014 -90 -90   XYZ
    dof rx
    limits (0.0 90.0)
  end
  begin
     id 30
     name rthumb
     direction -0.707107 -6.34978e-011 0.707107   
     length 0.850605   
     axis -90 -45 2.25915e-014   XYZ
    dof rx rz
    limits (-45.0 45.0)
           (-45.0 45.0)
  end
:hierarchy
  begin
    root lhipjoint rhipjoint lowerback
    lhipjoint lfemur
    lfemur ltibia
    ltibia lfoot
    lfoot ltoes
    rhipjoint rfemur
    rfemur rtibia
    rtibia rfoot
    rfoot rtoes
    lowerback upperback
    upperback thorax
    thorax lowerneck lclavicle rclavicle
    lowerneck upperneck
    upperneck head
    lclavicle lhumerus
    lhumerus lradius
    lradius lwrist
    lwrist lhand lthumb
    lhand lfingers
    rclavicle rhumerus
    rhumerus rradius
    rradius rwrist
    rwrist rhand rthumb
    rhand rfingers
  end

#!OML:ASF F:\VICON\USERDATA\INSTALL\rory3\rory3.ASF
:FULLY-SPECIFIED
:DEGREES
1
root -9.42887 17.6489 -2.42382 7.93833 47.7814 2.24277
lowerback 3.93144 -2.01912 -6.24465
upperback 0.973698 -2.90912 1.94068
thorax -0.783745 -1.45395 5.64314
lowerneck -12.6484 4.16124 -6.64519
upperneck 41.8241 8.56689 2.81861
head 16.9161 3.17804 4.01969
rclavicle -6.96243e-014 2.06736e-014
rhumerus -32.3985 -11.5188 -77.1962
rradius 36.8493
rwrist 20.3111
rhand -25.1801 0.316448
rfingers 7.12502
rthumb 1.33765 -29.6591
lclavicle -6.96243e-014 2.06736e-014
lhumerus -26.6983 11.2887 84.1157
lradius 23.8004
lwrist -9.96763
lhand -16.5101 26.3997
lfingers 7.12502
lthumb 9.70804 56.156
rfemur -29.7811 -0.207677 10.5336
rtibia 43.7361
rfoot -11.833 -6.42261
rtoes 0.508876
lfemur -13.8594 5.88546 -27.8704
ltibia 28.3176
lfoot -17.4769 4.1209
ltoes -6.43098
2
root -9.42353 17.6463 -2.42272 8.05187 47.8795 2.36193
lowerback 3.93506 -1.92033 -6.21624
upperback 1.08271 -2.77331 1.95081
thorax -0.693127 -1.39195 5.63066
lowerneck -12.3854 4.3295 -6.65669
upperneck 41.8775 8.77748 2.93991
head 16.8514 3.29006 4.09709
rclavicle -9.54166e-015 3.97569e-016
rhumerus -32.5064 -11.7352 -76.9084
rradius 36.7821
rwrist 20.4479
rhand -25.2383 0.23348
rfingers 7.12502
rthumb 1.28146 -29.7424
lclavicle -9.54166e-015 3.97569e-016
lhumerus -26.6012 11.3346 84.1745
lradius 24.0596
lwrist -9.87295
lhand -16.636 26.435
lfingers 7.12502
lthumb 9.58656 56.1969
rfemur -30.2594 -0.377633 10.6093
rtibia 44.4856
rfoot -12.0023 -7.48586
rtoes -0.680586
lfemur -13.9182 6.10575 -27.9665
ltibia 28.3732
lfoot -17.6466 3.70747
ltoes -5.92683
3
root -9.417 17.6389 -2.42108 8.12146 48.0853 2.3889
lowerback 3.94216 -1.8977 -6.15424
upperback 1.13723 -2.73885 2.01129
thorax -0.645485 -1.37784 5.65667
lowerneck -12.1378 4.46207 -6.76507
upperneck 42.0052 8.97114 3.0656
head 16.8282 3.37659 4.19582
rclavicle -2.51463e-014 -2.18663e-014
rhumerus -32.6697 -11.7392 -76.641
rradius 36.6806
rwrist 20.5027
rhand -25.2284 0.0692852
rfingers 7.12502
rthumb 1.291 -29.9066
lclavicle -2.51463e-014 -2.18663e-014
lhumerus -26.7043 10.9489 84.3319
lradius 24.5598
lwrist -9.22938
lhand -16.6456 26.6418
lfingers 7.12502
lthumb 9.57733 56.4041
rfemur -30.7591 -0.820626 10.8007
rtibia 45.2354
rfoot -12.1644 -8.30501
rtoes -0.768213
lfemur -13.9893 6.18174 -27.9808
ltibia 28.4435
lfoot -17.7936 3.34355
ltoes -5.19357
4
root -9.40971 17.6322 -2.42055 8.33 48.3081 2.59398
lowerback 3.98164 -1.90776 -6.18472
upperback 1.18084 -2.75437 2.02303
thorax -0.618035 -1.38771 5.68732
lowerneck -11.9117 4.58376 -6.87802
upperneck 42.1371 9.14209 3.20802
head 16.812 3.45378 4.29994
rclavicle 1.06499e-013 -2.22639e-014
rhumerus -32.7802 -11.7379 -76.4513
rradius 36.4775
rwrist 20.5891
rhand -25.294 -0.113139
rfingers 7.12502
rthumb 1.22763 -30.0894
lclavicle 1.06499e-013 -2.22639e-014
lhumerus -26.7084 11.0508 84.321
lradius 24.7664
lwrist -9.05355
lhand -16.8549 26.5256
lfingers 7.12502
lthumb 9.37532 56.2971
rfemur -31.238 -1.25912 10.8562
rtibia 45.9102
rfoot -12.3719 -9.03433
rtoes -0.727857
lfemur -14.0467 6.20018 -28.1252
ltibia 28.4759
lfoot -17.8272 3.22159
ltoes -5.27926
5
root -9.40123 17.6289 -2.42352 8.52814 48.526 2.7002
lowerback 3.99083 -1.90884 -6.10155
upperback 1.22013 -2.7516 2.04658
thorax -0.585757 -1.38832 5.66407
lowerneck -11.6437 4.70511 -6.9333
upperneck 42.1024 9.30335 3.26096
head 16.704 3.53213 4.33756
rclavicle 3.80673e-014 -4.77083e-015
rhumerus -32.8593 -11.8778 -76.2269
rradius 36.2407
rwrist 20.7793
rhand -25.2802 0.142659
rfingers 7.12502
rthumb 1.24093 -29.8335
lclavicle 3.80673e-014 -4.77083e-015
lhumerus -26.6309 11.2629 84.324
lradius 24.8926
lwrist -9.12308
lhand -16.951 26.3388
lfingers 7.12502
lthumb 9.28258 56.1144
rfemur -31.793 -1.66157 11.0052
rtibia 46.5005
rfoot -12.4947 -9.76052
rtoes -1.43546
lfemur -14.1682 6.13908 -28.2225
ltibia 28.4713
lfoot -17.832 3.18731
ltoes -5.3522
6
root -9.38911 17.6258 -2.4251 8.84199 48.7332 2.99538
lowerback 4.01035 -1.9583 -6.13524
upperback 1.26617 -2.81856 2.05647
thorax -0.537148 -1.4248 5.69519
lowerneck -11.4881 4.81699 -7.1096
upperneck 42.0538 9.50241 3.28359
head 16.6107 3.6 4.39258
rclavicle -6.15239e-014 5.1684e-015
rhumerus -32.8282 -11.9925 -75.976
rradius 35.9492
rwrist 21.1644
rhand -25.0339 0.295176
rfingers 7.12502
rthumb 1.47879 -29.6794
lclavicle -6.15239e-014 5.1684e-015
lhumerus -26.7366 11.2116 84.37
lradius 25.3226
lwrist -8.77513
lhand -16.957 26.2917
lfingers 7.12502
lthumb 9.27681 56.0676
rfemur -32.282 -2.0408 10.993
rtibia 46.9928
rfoot -12.7214 -10.0436
rtoes -0.906475
lfemur -14.2039 6.02652 -28.4582
ltibia 28.4165
lfoot -17.8085 3.06121
ltoes -5.22109
7
root -9.37707 17.623 -2.41701 9.11643 48.9249 3.32966
lowerback 4.03708 -1.99059 -6.317
upperback 1.34238 -2.86796 2.08228
thorax -0.455139 -1.45505 5.82603
lowerneck -11.3785 4.87001 -7.26611
upperneck 42.0977 9.6216 3.30728
head 16.5877 3.63194 4.44321
rclavicle -4.74101e-014 8.34896e-015
rhumerus -32.8012 -12.0069 -75.741
rradius 35.6544
rwrist 21.4625
rhand -25.0144 0.0229379
rfingers 7.12502
rthumb 1.49769 -29.9516
lclavicle -4.74101e-014 8.34896e-015
lhumerus -26.8829 10.9447 84.4303
lradius 25.773
lwrist -8.32629
lhand -16.8804 25.9516
lfingers 7.12502
lthumb 9.35075 55.7242
rfemur -32.6278 -2.37774 10.965
rtibia 47.3648
rfoot -13.1308 -9.88361
rtoes 1.25374
lfemur -14.1172 5.90228 -28.6737
ltibia 28.3311
lfoot -17.8405 2.93433
ltoes -4.8412
8
root -9.36705 17.6233 -2.40385 9.26071 49.1082 3.44377
lowerback 4.00043 -1.98175 -6.37429
upperback 1.408 -2.85414 2.10554
thorax -0.364362 -1.45348 5.87916
lowerneck -11.1693 4.89538 -7.31515
upperneck 42.0751 9.6281 3.37802
head 16.5123 3.64649 4.46843
rclavicle -1.43224e-013 8.74653e-015
rhumerus -32.8602 -12.1288 -75.5183
rradius 35.3847
rwrist 21.6287
rhand -24.9104 -0.16729
rfingers 7.12502
rthumb 1.59808 -30.1411
lclavicle -1.43224e-013 8.74653e-015
lhumerus -26.8801 10.9903 84.3676
lradius 25.9072
lwrist -8.38382
lhand -17.0417 25.8556
lfingers 7.12502
lthumb 9.19508 55.6351
rfemur -33.0146 -2.70338 11.1649
rtibia 47.6405
rfoot -13.3074 -9.85874
rtoes 1.70952
lfemur -14.075 6.00661 -28.7183
ltibia 28.2075
lfoot -17.8163 2.64094
ltoes -4.67548
9
root -9.35245 17.6301 -2.39615 9.20699 49.2681 3.24012
lowerback 3.93163 -1.94789 -6.10023
upperback 1.45801 -2.79277 2.13652
thorax -0.295509 -1.42549 5.74987
lowerneck -10.9716 4.90668 -7.28654
upperneck 42.0372 9.62967 3.35707
head 16.4461 3.65831 4.44014
rclavicle -3.79679e-014 3.65764e-014
rhumerus -32.9248 -12.3657 -75.2895
rradius 35.0415
rwrist 21.597
rhand -24.8424 0.108282
rfingers 7.12502
rthumb 1.66375 -29.865
lclavicle -3.79679e-014 3.65764e-014
lhumerus -26.7931 10.9498 84.3567
lradius 25.9848
lwrist -8.42583
lhand -16.9381 26.1966
lfingers 7.12502
lthumb 9.2951 55.9717
rfemur -33.4555 -2.93466 11.5651
rtibia 47.8099
rfoot -13.3258 -9.92576
rtoes 1.19143
lfemur -14.0927 6.13863 -28.5724
ltibia 28.1151
lfoot -17.844 2.46461
ltoes -5.06626
10
root -9.33212 17.6344 -2.3883 9.36968 49.3598 3.32822
lowerback 3.82773 -1.98249 -6.09784
upperback 1.50639 -2.83106 2.2159
thorax -0.177581 -1.45056 5.82688
lowerneck -10.7736 5.00089 -7.39166
upperneck 42.0205 9.84892 3.21282
head 16.381 3.72205 4.41313
rclavicle -3.01159e-014 -4.37326e-015
rhumerus -32.8764 -12.1891 -75.0785
rradius 34.5859
rwrist 21.3388
rhand -25.0453 0.548144
rfingers 7.12502
rthumb 1.46783 -29.4266
lclavicle -3.01159e-014 -4.37326e-015
lhumerus -26.7928 11.1811 84.443
lradius 26.1384
lwrist -8.1177
lhand -16.6038 26.291
lfingers 7.12502
lthumb 9.6176 56.0515
rfemur -33.8854 -3.18954 11.7298
rtibia 47.8957
rfoot -13.2487 -9.82557
rtoes 0.0572554
lfemur -14.1044 6.28016 -28.6412
ltibia 28.0782
lfoot -17.9509 2.20354
ltoes -4.78126
11
root -9.31595 17.6262 -2.37853 9.58104 49.5333 3.56408
lowerback 3.86236 -2.0998 -6.30488
upperback 1.54657 -2.99478 2.35722
thorax -0.111972 -1.53794 6.09751
lowerneck -10.726 5.10657 -7.71511
upperneck 42.1004 10.1221 3.18607
head 16.3774 3.7819 4.49664
rclavicle 5.33737e-014 1.90833e-014
rhumerus -32.7685 -11.7343 -74.8739
rradius 34.1358
rwrist 21.234
rhand -25.2585 0.632199
rfingers 7.12502
rthumb 1.2619 -29.3438
lclavicle 5.33737e-014 1.90833e-014
lhumerus -26.8393 11.4241 84.625
lradius 26.2937
lwrist -7.30521
lhand -16.467 26.418
lfingers 7.12502
lthumb 9.74964 56.1723
rfemur -34.1471 -3.62754 11.8782
rtibia 47.9009
rfoot -13.4092 -9.43492
rtoes 0.246651
lfemur -14.0628 6.30407 -28.7829
ltibia 28.0684
lfoot -18.0757 1.9309
ltoes -3.90089
12
root -9.30367 17.6208 -2.36721 9.61955 49.7124 3.57282
lowerback 4.00117 -2.1609 -6.33069
upperback 1.52144 -3.0847 2.46537
thorax -0.194215 -1.57985 6.23557
lowerneck -10.6538 5.13851 -7.98003
upperneck 42.2413 10.2258 3.27698
head 16.4047 3.79418 4.60077
rclavicle -2.39536e-014 1.35174e-014
rhumerus -32.9139 -11.4689 -74.6506
rradius 33.8804
rwrist 21.3103
rhand -25.4634 0.460199
rfingers 7.12502
rthumb 1.06397 -29.5169
lclavicle -2.39536e-014 1.35174e-014
lhumerus -27.0412 11.4056 84.6913
lradius 26.4835
lwrist -6.77717
lhand -16.344 26.5931
lfingers 7.12502
lthumb 9.8683 56.3418
rfemur -34.4091 -3.93394 12.2039
rtibia 47.8315
rfoot -13.537 -9.12188
rtoes 0.872899
lfemur -14.0645 6.56331 -28.7741
ltibia 28.0782
lfoot -18.1689 1.62096
ltoes -4.07387
13
root -9.28666 17.6217 -2.35622 9.57583 49.8025 3.44162
lowerback 4.04001 -2.09582 -6.14102
upperback 1.52973 -2.99206 2.49595
thorax -0.230354 -1.53128 6.15906
lowerneck -10.4866 5.06687 -8.07009
upperneck 42.2543 10.1074 3.33881
head 16.369 3.74637 4.61738
rclavicle -1.26228e-013 2.78299e-015
rhumerus -33.127 -11.7215 -74.3425
rradius 33.6198
rwrist 21.4655
rhand -25.5283 0.303976
rfingers 7.12502
rthumb 1.00133 -29.6734
lclavicle -1.26228e-013 2.78299e-015
lhumerus -27.0604 11.4594 84.5959
lradius 26.3855
lwrist -7.19885
lhand -16.4553 26.4598
lfingers 7.12502
lthumb 9.76087 56.2136
rfemur -34.7428 -4.13587 12.6189
rtibia 47.7018
rfoot -13.3298 -9.0011
rtoes -1.04891
lfemur -14.0708 6.67982 -28.6884
ltibia 28.1101
lfoot -18.2751 1.50462
ltoes -4.25627
